<svg xmlns="http://www.w3.org/2000/svg" xmlns:xlink="http://www.w3.org/1999/xlink" viewBox="0 0 1745.09 1745.09"><defs><style>.cls-1,.cls-2,.cls-5{fill:none;}.cls-1{stroke:#d8d9dd;}.cls-1,.cls-2{stroke-width:5px;}.cls-2,.cls-6{stroke:#009bdb;}.cls-3{fill:url(#Degradado_sin_nombre_24);}.cls-4{fill:#009bdb;}.cls-5{stroke:#211915;}.cls-5,.cls-6{stroke-miterlimit:10;}.cls-6,.cls-8{fill:#c2c3c9;}.cls-6{stroke-width:2px;}.cls-7{fill:#d8d9dd;}</style><radialGradient id="Degradado_sin_nombre_24" cx="873.4" cy="875.17" r="384.91" gradientUnits="userSpaceOnUse"><stop offset="0" stop-color="#fff"/><stop offset="0.03" stop-color="#fff" stop-opacity="0.9"/><stop offset="0.1" stop-color="#fff" stop-opacity="0.72"/><stop offset="0.17" stop-color="#fff" stop-opacity="0.54"/><stop offset="0.24" stop-color="#fff" stop-opacity="0.4"/><stop offset="0.33" stop-color="#fff" stop-opacity="0.27"/><stop offset="0.41" stop-color="#fff" stop-opacity="0.17"/><stop offset="0.51" stop-color="#fff" stop-opacity="0.1"/><stop offset="0.62" stop-color="#fff" stop-opacity="0.04"/><stop offset="0.76" stop-color="#fff" stop-opacity="0.01"/><stop offset="1" stop-color="#fff" stop-opacity="0"/></radialGradient><symbol id="Galón" data-name="Galón" viewBox="0 0 1439.24 1439.24"><path class="cls-1" d="M832.76,34.38C948.27,54.18,918.5,355.7,973.25,399.71c59,47.4,356.85-36.22,403,88.69,42,113.69-239.13,231.74-250.7,299.12-12.32,71.7,206.94,284.57,125,379.6-80.93,93.83-326.58-86.37-397.23-61.11-67.2,24-140.19,320.63-254.12,300.26-116.19-20.77-83.5-326-138-371.12-56.4-46.62-352,41.16-397.62-79.2C19,838.54,299.45,715.42,312.33,645.78c12.81-69.3-204.87-276-126.41-368.16C266.3,183.18,511.39,357,582.5,331.23,649.27,307.08,719.87,14.67,832.76,34.38Z"/><path class="cls-2" d="M873.64,45C988,71.91,940.08,370.49,992.35,418.56c55.17,50.72,356-14.89,394,109.34,35,114.37-251.49,215.73-266.73,282C1103.25,881,1309,1106.1,1220.33,1196.8c-87,89-320.27-105.52-391.41-84.75-67.42,19.69-156.28,310.64-268,284-115.58-27.51-66.19-330-118.49-379.2-52.7-49.59-350.94,20.79-389.08-98.75C15.82,800.49,301.18,693.66,317.48,625.36c16.61-69.6-187.09-289.42-100.9-378.45,85.91-88.74,317.83,99.64,388.89,78.44C673.33,305.11,761.59,18.23,873.64,45Z"/><path class="cls-1" d="M914.52,55.63c113.18,34,47.21,329.57,96.93,381.78,51.42,54,355,6.51,385,130,27.95,115.08-263.9,199.72-282.78,265-20.39,70.43,171.86,307.81,76.49,394.13-93,84.17-314-124.62-385.59-108.37C736.94,1133.44,632.2,1418.65,522.7,1386c-115-34.34-49-333.84-99-387.33-49.08-52.49-349.87.44-380.54-118.29C12.72,762.42,303,671.92,322.6,604.94c20.51-69.9-169.47-303-75.37-388.76,91.29-83.19,310.23,120,381.2,103.29C697.44,303.2,803.3,21.78,914.52,55.63Z"/><path class="cls-2" d="M955.4,66.24c112,41.14,28,333.6,75.16,390,47.72,57.17,353.86,27.91,375.92,150.65,20.84,115.81-276.3,183.71-298.78,247.84-24.48,69.82,154.39,319.49,52.23,401.42-99,79.41-307.63-143.69-379.79-132-67.77,11-188.34,290.33-295.66,251.62-114.4-41.27-31.89-337.62-79.47-395.4C359.44,925,56.28,960.43,33,842.54c-23.33-118.19,271.86-192.32,294.75-258,24.47-70.18-152-316.79-49.85-399.09,96.51-77.76,302.62,140.47,373.49,128.13C721.54,301.36,845,25.35,955.4,66.24Z"/><path class="cls-1" d="M996.3,76.88c110.83,48.25,9,337.59,53.33,398.22,44.13,60.32,352.68,49.31,366.93,171.28,13.61,116.55-288.7,167.68-314.79,230.78-28.6,69.16,136.89,331.19,28,408.68-104.94,74.67-301.3-162.64-374-155.61-68,6.78-204.32,280.06-309.53,235.4-113.7-48.28-14.88-341.33-59.94-403.48C344.16,904,38.78,921.79,22.84,804.73c-16.13-118.48,284-176.19,310.05-240.61,28.52-70.39-134.58-330.75-24.33-409.39,101.69-72.53,295,161,365.8,153C745.69,299.61,886.75,28.91,996.3,76.88Z"/><path class="cls-2" d="M1037.19,87.49c109.66,55.37-10,341.54,31.54,406.46,40.64,63.45,351.41,70.68,357.93,191.94,6.3,117.26-301.26,151.58-330.83,213.66-32.85,68.46,119.54,343.13,3.71,416-110.83,70.14-295-181.74-368.16-179.26C663.23,1138.73,511.14,1406,408,1355.49c-113-55.37,2-345-40.41-411.61C328.81,883,21.36,883.15,12.68,767,3.81,648.18,308.79,606.92,338,543.7c32.63-70.56-117.27-344.87,1.18-419.69C446,56.57,626.64,305.6,697.33,301.81,769.78,297.93,928.47,32.46,1037.19,87.49Z"/><path class="cls-1" d="M2.51,729.14C1,610.12,310.84,585.34,343.18,523.29c36.81-70.69-100-359.22,26.71-430C481.8,30.76,649.66,295.54,720.29,295.93c73.57.4,249.89-259.9,357.77-197.81,108.5,62.48-28.91,345.48,9.77,414.68,37.2,66.57,350.05,92,348.91,212.59-1.1,118-313.62,135.57-346.84,196.58-36.91,67.79,102,354.77-20.57,423.24C952.46,1410.55,780.64,1144.37,707,1142.33c-68.36-1.89-236.1,259.37-337.23,203-112.15-62.55,18.81-348.66-20.89-419.69C313.32,862,4,844.53,2.51,729.14Z"/></symbol></defs><title>logo</title><g id="Capa_7" data-name="Capa 7"><circle class="cls-3" cx="873.4" cy="875.17" r="384.91"/></g><g id="Capa_5" data-name="Capa 5"><use width="1439.24" height="1439.24" transform="matrix(1.21, 0.16, -0.16, 1.21, 113.83, -110.9)" xlink:href="#Galón"/></g><g id="Capa_4" data-name="Capa 4"><path class="cls-4" d="M980.17,849.26l-60.9,94.5c-29.75,45.85-51.1,66.5-90.3,66.5-39.9,0-63.35-31.85-63.35-62.3,0-29.75,13.65-52.5,65.45-80.5,35.7-23.1,49-32.9,49-55.3,0-19.25-12.25-37.8-35.7-37.8-22,0-37.45,13.65-37.45,39.2,0,15.75,10.85,30.45,31.85,50.4l144.9,142.8H957.42L825.12,876.21c-22.75-21.7-36-37.8-36-62.65,0-27.65,18.55-55.3,56-55.3,31.5,0,53.2,23.8,53.2,53.9,0,23.8-12.95,39.2-56,65.8-49.35,28-57.75,45.15-57.75,68.6,0,25.2,21.7,46.55,44.45,46.55,28.35,0,47.25-9.8,78.75-60.2l52.15-83.65Z" transform="translate(-17.35 -26.24)"/></g><g id="Capa_3" data-name="Capa 3"><path class="cls-5" d="M1116.82,880.62" transform="translate(-17.35 -26.24)"/><path class="cls-5" d="M1116.82,649.58" transform="translate(-17.35 -26.24)"/><path class="cls-6" d="M989.17,843l-60.9,94.5c-29.75,45.85-51.1,66.5-90.3,66.5-39.9,0-63.35-31.85-63.35-62.3,0-29.75,13.65-52.5,65.45-80.5,35.7-23.1,49-32.9,49-55.3,0-19.25-12.25-37.8-35.7-37.8-22,0-37.45,13.65-37.45,39.2,0,15.75,10.85,30.45,31.85,50.4l144.9,142.8H966.42L834.12,869.93c-22.75-21.7-36-37.8-36-62.65,0-27.65,18.55-55.3,56-55.3,31.5,0,53.2,23.8,53.2,53.9,0,23.8-12.95,39.2-56,65.8-49.35,28-57.75,45.15-57.75,68.6,0,25.2,21.7,46.55,44.45,46.55,28.35,0,47.25-9.8,78.75-60.2L968.87,843Z" transform="translate(-17.35 -26.24)"/><path class="cls-7" d="M650.79,455.62c51.2,0,88.8,10.8,114.4,34.8,20.4,18.8,36,46.8,36,87.19,0,46-19.2,81.2-50,104.4-29.6,22.4-67.6,33.6-113.2,33.6H528v-14.8c30.4-2.4,34-6,34-39.2v-152c0-33.6-4.4-36.8-34-39.2v-14.8Zm-33.2,203.19c0,28.4,7.2,38,36.4,38,54,0,85.2-37.6,85.2-113.2,0-38-10.4-71.19-28.8-88.39-16.8-16.8-37.6-22.4-64.4-22.4-14.8,0-21.6,3.2-24,5.6-3.6,3.6-4.4,10.4-4.4,22Z" transform="translate(-17.35 -26.24)"/><path class="cls-7" d="M1058.79,455.62c51.2,0,88.8,10.8,114.4,34.8,20.4,18.8,36,46.8,36,87.19,0,46-19.2,81.2-50,104.4-29.6,22.4-67.6,33.6-113.2,33.6H936v-14.8c30.4-2.4,34-6,34-39.2v-152c0-33.6-4.4-36.8-34-39.2v-14.8Zm-33.2,203.19c0,28.4,7.2,38,36.4,38,54,0,85.2-37.6,85.2-113.2,0-38-10.4-71.19-28.8-88.39-16.8-16.8-37.6-22.4-64.4-22.4-14.8,0-21.6,3.2-24,5.6-3.6,3.6-4.4,10.4-4.4,22Z" transform="translate(-17.35 -26.24)"/><path class="cls-4" d="M660.79,445.62c51.2,0,88.8,10.8,114.4,34.8,20.4,18.8,36,46.8,36,87.19,0,46-19.2,81.2-50,104.4-29.6,22.4-67.6,33.6-113.2,33.6H538v-14.8c30.4-2.4,34-6,34-39.2v-152c0-33.6-4.4-36.8-34-39.2v-14.8Zm-33.2,203.19c0,28.4,7.2,38,36.4,38,54,0,85.2-37.6,85.2-113.2,0-38-10.4-71.19-28.8-88.39-16.8-16.8-37.6-22.4-64.4-22.4-14.8,0-21.6,3.2-24,5.6-3.6,3.6-4.4,10.4-4.4,22Z" transform="translate(-17.35 -26.24)"/><path class="cls-4" d="M1068.79,445.62c51.2,0,88.8,10.8,114.4,34.8,20.4,18.8,36,46.8,36,87.19,0,46-19.2,81.2-50,104.4-29.6,22.4-67.6,33.6-113.2,33.6H946v-14.8c30.4-2.4,34-6,34-39.2v-152c0-33.6-4.4-36.8-34-39.2v-14.8Zm-33.2,203.19c0,28.4,7.2,38,36.4,38,54,0,85.2-37.6,85.2-113.2,0-38-10.4-71.19-28.8-88.39-16.8-16.8-37.6-22.4-64.4-22.4-14.8,0-21.6,3.2-24,5.6-3.6,3.6-4.4,10.4-4.4,22Z" transform="translate(-17.35 -26.24)"/><path class="cls-8" d="M734.57,1353.33v-11.2c26-3.2,29.2-7.2,23.6-22.4-5.2-15.6-13.2-35.6-21.6-60.8h-86.4c-6.4,18-12.4,33.6-18,50-8.8,26-3.2,29.2,29.6,33.2v11.2h-92.4v-11.2c25.2-3.2,31.6-6,45.6-42l82.8-210,12.8-2.4c25.2,68.4,52.8,144,78,213.2,12.8,34.8,16.4,38,44.8,41.2v11.2Zm-40-213.2c-12.8,34.4-26.4,70.8-38.4,102.4H731Z" transform="translate(-17.35 -26.24)"/><path class="cls-8" d="M1281.37,1104.53c-28,4-32,7.2-42.8,40-13.2,40-45.2,141.6-67.2,213.2h-13.6c-20.8-62.4-47.6-139.6-68.4-198.8-23.2,68.8-46.8,137.2-67.6,198.8h-13.2c-20-68.8-42.8-143.6-64.4-213.6-10.4-32.4-14.79-36.8-40.79-39.6v-11.2h98.79v11.2c-29.6,3.2-30.4,7.6-24.8,27.6,15.6,54,31.6,107.2,48,163.6,22-63.6,46-133.2,66.4-198.8h12.8c22.4,68,44.8,131.2,68,199.2,16.8-53.2,39.6-124.4,48.4-159.2,6-23.2,2.8-28.4-31.2-32.4v-11.2h91.6Z" transform="translate(-17.35 -26.24)"/><path class="cls-4" d="M743.42,1343.33v-11.2c26-3.2,29.19-7.2,23.6-22.4-5.21-15.6-13.2-35.6-21.6-60.8H659c-6.4,18-12.4,33.6-18,50-8.8,26-3.2,29.2,29.6,33.2v11.2h-92.4v-11.2c25.2-3.2,31.6-6,45.6-42l82.8-210,12.8-2.4c25.2,68.4,52.79,144,78,213.2,12.8,34.8,16.4,38,44.8,41.2v11.2Zm-40-213.2c-12.8,34.4-26.4,70.8-38.4,102.4h74.8Z" transform="translate(-17.35 -26.24)"/><path class="cls-4" d="M1290.21,1094.53c-28,4-32,7.2-42.79,40-13.2,40-45.2,141.6-67.2,213.2h-13.6c-20.8-62.4-47.6-139.6-68.4-198.8-23.2,68.8-46.8,137.2-67.6,198.8h-13.2c-20-68.8-42.8-143.6-64.4-213.6-10.4-32.4-14.8-36.8-40.8-39.6v-11.2H1011v11.2c-29.6,3.2-30.4,7.6-24.8,27.6,15.6,54,31.6,107.2,48,163.6,22-63.6,46-133.2,66.4-198.8h12.8c22.4,68,44.8,131.2,68,199.2,16.8-53.2,39.6-124.4,48.4-159.2,6-23.2,2.8-28.4-31.2-32.4v-11.2h91.59Z" transform="translate(-17.35 -26.24)"/></g></svg>